<svg xmlns="http://www.w3.org/2000/svg" xmlns:xlink="http://www.w3.org/1999/xlink" width="180" zoomAndPan="magnify" viewBox="630 378 180 64" height="64" preserveAspectRatio="xMidYMid meet" version="1.0"><metadata/><defs><filter x="0%" y="0%" width="100%" height="100%" id="ffbca4095d"><feColorMatrix values="0 0 0 0 1 0 0 0 0 1 0 0 0 0 1 0 0 0 1 0" color-interpolation-filters="sRGB"/></filter><g/><clipPath id="77dd6c5ad2"><path d="M 515.019531 247.875 L 923.769531 247.875 L 923.769531 561.375 L 515.019531 561.375 Z M 515.019531 247.875 " clip-rule="nonzero"/></clipPath><clipPath id="436ef3499e"><path d="M 0.0195312 0.875 L 408.769531 0.875 L 408.769531 314.375 L 0.0195312 314.375 Z M 0.0195312 0.875 " clip-rule="nonzero"/></clipPath><clipPath id="e946fa7cf4"><path d="M 0.769531 1.625 L 408.019531 1.625 L 408.019531 313.625 L 0.769531 313.625 Z M 0.769531 1.625 " clip-rule="nonzero"/></clipPath><linearGradient x1="-153.901001" gradientTransform="matrix(0.750638, 0, 0, 0.749962, 116.294076, 117.127462)" y1="54" x2="388.635989" gradientUnits="userSpaceOnUse" y2="54" id="e9ec1c09b2"><stop stop-opacity="1" stop-color="rgb(36.468506%, 87.838745%, 90.19928%)" offset="0"/><stop stop-opacity="1" stop-color="rgb(36.468506%, 87.838745%, 90.19928%)" offset="0.25"/><stop stop-opacity="1" stop-color="rgb(36.468506%, 87.838745%, 90.19928%)" offset="0.28125"/><stop stop-opacity="1" stop-color="rgb(36.326599%, 87.608337%, 90.110779%)" offset="0.285156"/><stop stop-opacity="1" stop-color="rgb(36.184692%, 87.379456%, 90.023804%)" offset="0.289062"/><stop stop-opacity="1" stop-color="rgb(35.852051%, 86.842346%, 89.819336%)" offset="0.292969"/><stop stop-opacity="1" stop-color="rgb(35.519409%, 86.306763%, 89.616394%)" offset="0.296875"/><stop stop-opacity="1" stop-color="rgb(35.186768%, 85.771179%, 89.411926%)" offset="0.300781"/><stop stop-opacity="1" stop-color="rgb(34.854126%, 85.235596%, 89.208984%)" offset="0.304688"/><stop stop-opacity="1" stop-color="rgb(34.521484%, 84.698486%, 89.004517%)" offset="0.308594"/><stop stop-opacity="1" stop-color="rgb(34.190369%, 84.162903%, 88.801575%)" offset="0.3125"/><stop stop-opacity="1" stop-color="rgb(33.857727%, 83.625793%, 88.597107%)" offset="0.316406"/><stop stop-opacity="1" stop-color="rgb(33.525085%, 83.09021%, 88.394165%)" offset="0.320312"/><stop stop-opacity="1" stop-color="rgb(33.192444%, 82.554626%, 88.189697%)" offset="0.324219"/><stop stop-opacity="1" stop-color="rgb(32.859802%, 82.019043%, 87.986755%)" offset="0.328125"/><stop stop-opacity="1" stop-color="rgb(32.527161%, 81.481934%, 87.782288%)" offset="0.332031"/><stop stop-opacity="1" stop-color="rgb(32.196045%, 80.94635%, 87.579346%)" offset="0.335937"/><stop stop-opacity="1" stop-color="rgb(31.863403%, 80.409241%, 87.374878%)" offset="0.339844"/><stop stop-opacity="1" stop-color="rgb(31.530762%, 79.873657%, 87.171936%)" offset="0.34375"/><stop stop-opacity="1" stop-color="rgb(31.19812%, 79.336548%, 86.967468%)" offset="0.347656"/><stop stop-opacity="1" stop-color="rgb(30.865479%, 78.800964%, 86.763%)" offset="0.351562"/><stop stop-opacity="1" stop-color="rgb(30.532837%, 78.265381%, 86.558533%)" offset="0.355469"/><stop stop-opacity="1" stop-color="rgb(30.200195%, 77.729797%, 86.355591%)" offset="0.359375"/><stop stop-opacity="1" stop-color="rgb(29.867554%, 77.192688%, 86.151123%)" offset="0.363281"/><stop stop-opacity="1" stop-color="rgb(29.536438%, 76.657104%, 85.948181%)" offset="0.367187"/><stop stop-opacity="1" stop-color="rgb(29.203796%, 76.119995%, 85.743713%)" offset="0.371094"/><stop stop-opacity="1" stop-color="rgb(28.871155%, 75.584412%, 85.540771%)" offset="0.375"/><stop stop-opacity="1" stop-color="rgb(28.538513%, 75.048828%, 85.336304%)" offset="0.378906"/><stop stop-opacity="1" stop-color="rgb(28.205872%, 74.513245%, 85.133362%)" offset="0.382812"/><stop stop-opacity="1" stop-color="rgb(27.87323%, 73.976135%, 84.928894%)" offset="0.386719"/><stop stop-opacity="1" stop-color="rgb(27.542114%, 73.440552%, 84.725952%)" offset="0.390625"/><stop stop-opacity="1" stop-color="rgb(27.209473%, 72.903442%, 84.521484%)" offset="0.394531"/><stop stop-opacity="1" stop-color="rgb(26.876831%, 72.367859%, 84.318542%)" offset="0.398437"/><stop stop-opacity="1" stop-color="rgb(26.544189%, 71.832275%, 84.114075%)" offset="0.402344"/><stop stop-opacity="1" stop-color="rgb(26.211548%, 71.296692%, 83.911133%)" offset="0.40625"/><stop stop-opacity="1" stop-color="rgb(25.878906%, 70.759583%, 83.706665%)" offset="0.410156"/><stop stop-opacity="1" stop-color="rgb(25.547791%, 70.223999%, 83.502197%)" offset="0.414062"/><stop stop-opacity="1" stop-color="rgb(25.215149%, 69.68689%, 83.297729%)" offset="0.417969"/><stop stop-opacity="1" stop-color="rgb(24.882507%, 69.151306%, 83.094788%)" offset="0.421875"/><stop stop-opacity="1" stop-color="rgb(24.549866%, 68.614197%, 82.89032%)" offset="0.425781"/><stop stop-opacity="1" stop-color="rgb(24.217224%, 68.078613%, 82.687378%)" offset="0.429687"/><stop stop-opacity="1" stop-color="rgb(23.884583%, 67.54303%, 82.48291%)" offset="0.433594"/><stop stop-opacity="1" stop-color="rgb(23.551941%, 67.007446%, 82.279968%)" offset="0.4375"/><stop stop-opacity="1" stop-color="rgb(23.219299%, 66.470337%, 82.0755%)" offset="0.441406"/><stop stop-opacity="1" stop-color="rgb(22.888184%, 65.934753%, 81.872559%)" offset="0.445312"/><stop stop-opacity="1" stop-color="rgb(22.555542%, 65.397644%, 81.668091%)" offset="0.449219"/><stop stop-opacity="1" stop-color="rgb(22.2229%, 64.862061%, 81.465149%)" offset="0.453125"/><stop stop-opacity="1" stop-color="rgb(21.890259%, 64.326477%, 81.260681%)" offset="0.457031"/><stop stop-opacity="1" stop-color="rgb(21.557617%, 63.790894%, 81.057739%)" offset="0.460937"/><stop stop-opacity="1" stop-color="rgb(21.224976%, 63.253784%, 80.853271%)" offset="0.464844"/><stop stop-opacity="1" stop-color="rgb(20.89386%, 62.718201%, 80.65033%)" offset="0.46875"/><stop stop-opacity="1" stop-color="rgb(20.561218%, 62.181091%, 80.445862%)" offset="0.472656"/><stop stop-opacity="1" stop-color="rgb(20.228577%, 61.645508%, 80.241394%)" offset="0.476562"/><stop stop-opacity="1" stop-color="rgb(19.895935%, 61.109924%, 80.036926%)" offset="0.480469"/><stop stop-opacity="1" stop-color="rgb(19.563293%, 60.574341%, 79.833984%)" offset="0.484375"/><stop stop-opacity="1" stop-color="rgb(19.230652%, 60.037231%, 79.629517%)" offset="0.488281"/><stop stop-opacity="1" stop-color="rgb(18.899536%, 59.501648%, 79.426575%)" offset="0.492188"/><stop stop-opacity="1" stop-color="rgb(18.566895%, 58.964539%, 79.222107%)" offset="0.496094"/><stop stop-opacity="1" stop-color="rgb(18.234253%, 58.428955%, 79.019165%)" offset="0.5"/><stop stop-opacity="1" stop-color="rgb(17.901611%, 57.891846%, 78.814697%)" offset="0.503906"/><stop stop-opacity="1" stop-color="rgb(17.56897%, 57.356262%, 78.611755%)" offset="0.507812"/><stop stop-opacity="1" stop-color="rgb(17.236328%, 56.820679%, 78.407288%)" offset="0.511719"/><stop stop-opacity="1" stop-color="rgb(16.905212%, 56.285095%, 78.204346%)" offset="0.515625"/><stop stop-opacity="1" stop-color="rgb(16.572571%, 55.747986%, 77.999878%)" offset="0.519531"/><stop stop-opacity="1" stop-color="rgb(16.239929%, 55.212402%, 77.796936%)" offset="0.523438"/><stop stop-opacity="1" stop-color="rgb(15.907288%, 54.675293%, 77.592468%)" offset="0.527344"/><stop stop-opacity="1" stop-color="rgb(15.574646%, 54.139709%, 77.389526%)" offset="0.53125"/><stop stop-opacity="1" stop-color="rgb(15.242004%, 53.604126%, 77.185059%)" offset="0.535156"/><stop stop-opacity="1" stop-color="rgb(14.909363%, 53.068542%, 76.980591%)" offset="0.539062"/><stop stop-opacity="1" stop-color="rgb(14.576721%, 52.531433%, 76.776123%)" offset="0.542969"/><stop stop-opacity="1" stop-color="rgb(14.245605%, 51.99585%, 76.573181%)" offset="0.546875"/><stop stop-opacity="1" stop-color="rgb(13.912964%, 51.45874%, 76.368713%)" offset="0.550781"/><stop stop-opacity="1" stop-color="rgb(13.580322%, 50.923157%, 76.165771%)" offset="0.554688"/><stop stop-opacity="1" stop-color="rgb(13.247681%, 50.386047%, 75.961304%)" offset="0.558594"/><stop stop-opacity="1" stop-color="rgb(12.915039%, 49.850464%, 75.758362%)" offset="0.5625"/><stop stop-opacity="1" stop-color="rgb(12.582397%, 49.31488%, 75.553894%)" offset="0.566406"/><stop stop-opacity="1" stop-color="rgb(12.251282%, 48.779297%, 75.350952%)" offset="0.570312"/><stop stop-opacity="1" stop-color="rgb(11.91864%, 48.242188%, 75.146484%)" offset="0.574219"/><stop stop-opacity="1" stop-color="rgb(11.585999%, 47.706604%, 74.943542%)" offset="0.578125"/><stop stop-opacity="1" stop-color="rgb(11.253357%, 47.169495%, 74.739075%)" offset="0.582031"/><stop stop-opacity="1" stop-color="rgb(10.920715%, 46.633911%, 74.536133%)" offset="0.585937"/><stop stop-opacity="1" stop-color="rgb(10.588074%, 46.098328%, 74.331665%)" offset="0.589844"/><stop stop-opacity="1" stop-color="rgb(10.256958%, 45.562744%, 74.127197%)" offset="0.59375"/><stop stop-opacity="1" stop-color="rgb(9.924316%, 45.025635%, 73.922729%)" offset="0.597656"/><stop stop-opacity="1" stop-color="rgb(9.591675%, 44.490051%, 73.719788%)" offset="0.601562"/><stop stop-opacity="1" stop-color="rgb(9.259033%, 43.952942%, 73.51532%)" offset="0.605469"/><stop stop-opacity="1" stop-color="rgb(8.926392%, 43.417358%, 73.312378%)" offset="0.609375"/><stop stop-opacity="1" stop-color="rgb(8.59375%, 42.881775%, 73.10791%)" offset="0.613281"/><stop stop-opacity="1" stop-color="rgb(8.262634%, 42.346191%, 72.904968%)" offset="0.617187"/><stop stop-opacity="1" stop-color="rgb(7.929993%, 41.809082%, 72.7005%)" offset="0.621094"/><stop stop-opacity="1" stop-color="rgb(7.597351%, 41.273499%, 72.497559%)" offset="0.625"/><stop stop-opacity="1" stop-color="rgb(7.264709%, 40.736389%, 72.293091%)" offset="0.628906"/><stop stop-opacity="1" stop-color="rgb(6.932068%, 40.200806%, 72.090149%)" offset="0.632813"/><stop stop-opacity="1" stop-color="rgb(6.599426%, 39.663696%, 71.885681%)" offset="0.636719"/><stop stop-opacity="1" stop-color="rgb(6.266785%, 39.128113%, 71.682739%)" offset="0.640625"/><stop stop-opacity="1" stop-color="rgb(5.934143%, 38.592529%, 71.478271%)" offset="0.644531"/><stop stop-opacity="1" stop-color="rgb(5.603027%, 38.056946%, 71.27533%)" offset="0.648438"/><stop stop-opacity="1" stop-color="rgb(5.270386%, 37.519836%, 71.070862%)" offset="0.652344"/><stop stop-opacity="1" stop-color="rgb(4.937744%, 36.984253%, 70.866394%)" offset="0.65625"/><stop stop-opacity="1" stop-color="rgb(4.605103%, 36.447144%, 70.661926%)" offset="0.660156"/><stop stop-opacity="1" stop-color="rgb(4.272461%, 35.91156%, 70.458984%)" offset="0.664062"/><stop stop-opacity="1" stop-color="rgb(3.939819%, 35.375977%, 70.254517%)" offset="0.667969"/><stop stop-opacity="1" stop-color="rgb(3.608704%, 34.840393%, 70.051575%)" offset="0.671875"/><stop stop-opacity="1" stop-color="rgb(3.276062%, 34.303284%, 69.847107%)" offset="0.675781"/><stop stop-opacity="1" stop-color="rgb(2.94342%, 33.7677%, 69.644165%)" offset="0.679688"/><stop stop-opacity="1" stop-color="rgb(2.610779%, 33.230591%, 69.439697%)" offset="0.683594"/><stop stop-opacity="1" stop-color="rgb(2.278137%, 32.695007%, 69.236755%)" offset="0.6875"/><stop stop-opacity="1" stop-color="rgb(1.945496%, 32.159424%, 69.032288%)" offset="0.691406"/><stop stop-opacity="1" stop-color="rgb(1.61438%, 31.62384%, 68.829346%)" offset="0.695312"/><stop stop-opacity="1" stop-color="rgb(1.281738%, 31.086731%, 68.624878%)" offset="0.699219"/><stop stop-opacity="1" stop-color="rgb(0.949097%, 30.551147%, 68.421936%)" offset="0.703125"/><stop stop-opacity="1" stop-color="rgb(0.616455%, 30.014038%, 68.217468%)" offset="0.707031"/><stop stop-opacity="1" stop-color="rgb(0.283813%, 29.478455%, 68.014526%)" offset="0.710938"/><stop stop-opacity="1" stop-color="rgb(0.141907%, 29.248047%, 67.926025%)" offset="0.714844"/><stop stop-opacity="1" stop-color="rgb(0%, 29.019165%, 67.83905%)" offset="0.71875"/><stop stop-opacity="1" stop-color="rgb(0%, 29.019165%, 67.83905%)" offset="0.75"/><stop stop-opacity="1" stop-color="rgb(0%, 29.019165%, 67.83905%)" offset="1"/></linearGradient><clipPath id="c7de445ac1"><rect x="0" width="409" y="0" height="315"/></clipPath><clipPath id="ac1ea4a2b3"><path d="M 0.0195312 0.875 L 408.769531 0.875 L 408.769531 314.375 L 0.0195312 314.375 Z M 0.0195312 0.875 " clip-rule="nonzero"/></clipPath><clipPath id="7659f003f0"><rect x="0" width="409" y="0" height="315"/></clipPath><clipPath id="91d3749e12"><rect x="0" width="409" y="0" height="315"/></clipPath><mask id="75cdf948b6"><g filter="url(#ffbca4095d)"><g transform="matrix(1, 0, 0, 1, 0, 0.000000000000028422)"><g clip-path="url(#91d3749e12)"><g clip-path="url(#ac1ea4a2b3)"><g transform="matrix(1, 0, 0, 1, 0, 0.000000000000028422)"><g clip-path="url(#7659f003f0)"><g fill="#000000" fill-opacity="1"><g transform="translate(117.101615, 180.125027)"><g><path d="M 31.453125 -16.5 C 31.867188 -16.5 32.234375 -16.597656 32.546875 -16.796875 C 32.859375 -16.992188 33.535156 -17.578125 34.578125 -18.546875 C 34.890625 -18.816406 35.21875 -18.953125 35.5625 -18.953125 C 35.914062 -18.953125 36.632812 -18.726562 37.71875 -18.28125 C 38.800781 -17.832031 39.632812 -17.210938 40.21875 -16.421875 C 40.800781 -15.628906 41.117188 -14.820312 41.171875 -14 C 41.234375 -13.1875 41.265625 -11.203125 41.265625 -8.046875 C 41.265625 -4.890625 41.222656 -2.34375 41.140625 -0.40625 C 41.066406 1.53125 40.703125 3.300781 40.046875 4.90625 C 39.390625 6.519531 38.960938 7.429688 38.765625 7.640625 C 38.578125 7.859375 38.40625 7.96875 38.25 7.96875 C 37.738281 7.96875 37.164062 7.171875 36.53125 5.578125 C 35.894531 3.992188 35.332031 2.773438 34.84375 1.921875 C 34.363281 1.066406 33.957031 0.640625 33.625 0.640625 C 33.289062 0.640625 32.972656 0.738281 32.671875 0.9375 C 30.035156 2.363281 28.328125 3.078125 27.546875 3.078125 C 26.773438 3.078125 26 2.269531 25.21875 0.65625 C 24.445312 -0.945312 24.0625 -3.046875 24.0625 -5.640625 C 24.0625 -9.203125 24.265625 -11.75 24.671875 -13.28125 C 25.078125 -14.8125 25.863281 -15.984375 27.03125 -16.796875 C 26.175781 -17.648438 24.703125 -18.382812 22.609375 -19 C 19.472656 -12.882812 16.722656 -9.828125 14.359375 -9.828125 C 13.972656 -9.828125 13.535156 -9.921875 13.046875 -10.109375 C 12.566406 -10.304688 12.328125 -10.617188 12.328125 -11.046875 C 12.328125 -11.472656 12.410156 -11.820312 12.578125 -12.09375 C 12.753906 -12.363281 12.957031 -12.5 13.1875 -12.5 C 14.195312 -12.5 15.378906 -13.570312 16.734375 -15.71875 C 18.097656 -17.875 18.835938 -19.472656 18.953125 -20.515625 C 18.253906 -20.085938 17.359375 -19.390625 16.265625 -18.421875 C 15.179688 -17.453125 14.050781 -16.722656 12.875 -16.234375 C 11.695312 -15.753906 10.796875 -15.515625 10.171875 -15.515625 C 9.546875 -15.515625 8.929688 -15.726562 8.328125 -16.15625 C 7.734375 -16.582031 7.242188 -16.921875 6.859375 -17.171875 C 6.472656 -17.421875 6.28125 -17.703125 6.28125 -18.015625 C 6.28125 -18.554688 6.53125 -18.847656 7.03125 -18.890625 C 7.53125 -18.929688 7.953125 -19.019531 8.296875 -19.15625 C 8.648438 -19.289062 9.390625 -19.765625 10.515625 -20.578125 C 11.640625 -21.390625 12.898438 -22.160156 14.296875 -22.890625 C 15.691406 -23.628906 17.570312 -24.425781 19.9375 -25.28125 C 20.164062 -26.09375 20.28125 -26.65625 20.28125 -26.96875 C 20.28125 -27.28125 20.203125 -27.4375 20.046875 -27.4375 C 19.898438 -27.4375 19.582031 -27.257812 19.09375 -26.90625 C 18.613281 -26.5625 18.070312 -26.210938 17.46875 -25.859375 C 16.863281 -25.515625 16.484375 -25.34375 16.328125 -25.34375 C 16.171875 -25.34375 16.09375 -25.457031 16.09375 -25.6875 C 16.09375 -25.925781 16.546875 -26.375 17.453125 -27.03125 C 18.367188 -27.6875 19.039062 -28.113281 19.46875 -28.3125 C 19.425781 -28.65625 19.316406 -28.828125 19.140625 -28.828125 C 18.972656 -28.828125 18.800781 -28.769531 18.625 -28.65625 C 18.457031 -28.539062 18.332031 -28.484375 18.25 -28.484375 C 17.664062 -28.484375 17.140625 -29.050781 16.671875 -30.1875 C 16.210938 -31.332031 15.984375 -32.300781 15.984375 -33.09375 C 15.984375 -33.894531 16.066406 -34.488281 16.234375 -34.875 C 16.410156 -35.257812 16.632812 -35.488281 16.90625 -35.5625 C 17.1875 -35.644531 17.460938 -35.890625 17.734375 -36.296875 C 18.003906 -36.703125 18.140625 -37.117188 18.140625 -37.546875 C 18.140625 -37.972656 17.972656 -38.332031 17.640625 -38.625 C 17.304688 -38.914062 17.101562 -39.164062 17.03125 -39.375 C 16.957031 -39.59375 16.921875 -39.863281 16.921875 -40.1875 C 16.921875 -40.519531 16.976562 -40.6875 17.09375 -40.6875 C 17.632812 -40.6875 18.414062 -40.335938 19.4375 -39.640625 C 20.46875 -38.941406 21.332031 -37.875 22.03125 -36.4375 C 22.300781 -35.863281 22.96875 -35.578125 24.03125 -35.578125 C 25.101562 -35.578125 25.820312 -35.796875 26.1875 -36.234375 C 26.550781 -36.679688 26.910156 -36.90625 27.265625 -36.90625 C 27.492188 -36.90625 27.722656 -36.757812 27.953125 -36.46875 C 28.191406 -36.175781 28.503906 -35.972656 28.890625 -35.859375 C 29.273438 -35.742188 29.570312 -35.519531 29.78125 -35.1875 C 30 -34.863281 30.109375 -34.476562 30.109375 -34.03125 C 30.109375 -33.582031 29.914062 -33.265625 29.53125 -33.078125 C 28.445312 -32.535156 27.707031 -32.085938 27.3125 -31.734375 C 26 -30.578125 24.859375 -29.785156 23.890625 -29.359375 C 23.734375 -29.234375 23.65625 -29.054688 23.65625 -28.828125 C 23.65625 -28.597656 23.789062 -28.382812 24.0625 -28.1875 C 24.488281 -27.875 24.679688 -27.488281 24.640625 -27.03125 C 26.546875 -28.070312 27.851562 -28.59375 28.5625 -28.59375 C 29.28125 -28.59375 30.078125 -28.242188 30.953125 -27.546875 C 31.828125 -26.847656 32.265625 -26.332031 32.265625 -26 C 32.265625 -25.675781 31.691406 -25.515625 30.546875 -25.515625 C 29.398438 -25.515625 28.21875 -25.359375 27 -25.046875 C 25.78125 -24.742188 24.765625 -24.300781 23.953125 -23.71875 C 23.828125 -23.019531 23.648438 -22.34375 23.421875 -21.6875 C 24.078125 -21.800781 24.695312 -21.859375 25.28125 -21.859375 C 28.300781 -21.859375 30.359375 -20.070312 31.453125 -16.5 Z M 30.28125 -15.578125 L 27.546875 -16.390625 C 27.359375 -15.960938 27.265625 -15.503906 27.265625 -15.015625 C 27.265625 -14.535156 27.398438 -13.890625 27.671875 -13.078125 C 28.484375 -14.003906 29.351562 -14.835938 30.28125 -15.578125 Z M 28.015625 -1.109375 C 29.367188 -1.492188 30.5 -1.847656 31.40625 -2.171875 C 32.320312 -2.503906 32.972656 -2.671875 33.359375 -2.671875 C 34.097656 -2.671875 34.757812 -2.289062 35.34375 -1.53125 C 35.925781 -0.78125 36.273438 -0.40625 36.390625 -0.40625 C 36.691406 -0.40625 36.84375 -2.09375 36.84375 -5.46875 C 36.84375 -10.695312 36.820312 -13.484375 36.78125 -13.828125 C 36.75 -14.179688 36.566406 -14.359375 36.234375 -14.359375 C 35.910156 -14.359375 35.398438 -14.066406 34.703125 -13.484375 C 34.003906 -12.898438 33.421875 -12.5 32.953125 -12.28125 C 32.492188 -12.070312 31.632812 -11.890625 30.375 -11.734375 C 29.113281 -11.585938 28.363281 -11.257812 28.125 -10.75 C 28.207031 -9.238281 28.226562 -8.25 28.1875 -7.78125 C 29.625 -8.175781 30.640625 -8.578125 31.234375 -8.984375 C 31.835938 -9.390625 32.367188 -9.59375 32.828125 -9.59375 C 33.296875 -9.59375 33.890625 -9.28125 34.609375 -8.65625 C 35.328125 -8.039062 35.6875 -7.535156 35.6875 -7.140625 C 35.6875 -6.753906 35.550781 -6.523438 35.28125 -6.453125 C 34.351562 -6.179688 33.460938 -5.859375 32.609375 -5.484375 C 31.753906 -5.117188 31.066406 -4.890625 30.546875 -4.796875 C 30.023438 -4.703125 29.179688 -4.671875 28.015625 -4.703125 C 27.972656 -4.359375 27.953125 -3.828125 27.953125 -3.109375 C 27.953125 -2.390625 27.972656 -1.722656 28.015625 -1.109375 Z M 35.21875 -30.578125 C 35.84375 -31.304688 37.066406 -32.300781 38.890625 -33.5625 C 40.710938 -34.820312 41.929688 -35.578125 42.546875 -35.828125 C 43.171875 -36.085938 43.867188 -36.21875 44.640625 -36.21875 C 46.222656 -36.21875 47.65625 -35.65625 48.9375 -34.53125 C 50.21875 -33.40625 50.859375 -32.222656 50.859375 -30.984375 C 50.859375 -30.328125 50.703125 -29.898438 50.390625 -29.703125 C 49.578125 -29.160156 48.335938 -27.648438 46.671875 -25.171875 C 47.453125 -24.660156 47.84375 -24.160156 47.84375 -23.671875 C 47.84375 -23.191406 47.664062 -22.9375 47.3125 -22.90625 C 45.875 -22.632812 44.476562 -22.164062 43.125 -21.5 C 41.769531 -20.84375 40.203125 -20.34375 38.421875 -20 C 38.378906 -19.332031 37.972656 -19 37.203125 -19 C 35.960938 -19 34.953125 -19.890625 34.171875 -21.671875 C 33.398438 -23.460938 33.015625 -25.015625 33.015625 -26.328125 C 33.015625 -26.753906 33.050781 -27.125 33.125 -27.4375 C 33.207031 -27.75 33.25 -28.054688 33.25 -28.359375 C 33.25 -29.410156 32.6875 -30.578125 31.5625 -31.859375 C 31.289062 -32.160156 31.15625 -32.378906 31.15625 -32.515625 C 31.15625 -32.648438 31.304688 -32.71875 31.609375 -32.71875 C 31.921875 -32.71875 32.414062 -32.535156 33.09375 -32.171875 C 33.78125 -31.804688 34.488281 -31.273438 35.21875 -30.578125 Z M 40.921875 -25.75 C 43.242188 -28.300781 44.40625 -29.910156 44.40625 -30.578125 C 44.40625 -30.765625 44.335938 -30.859375 44.203125 -30.859375 C 44.066406 -30.859375 43.960938 -30.84375 43.890625 -30.8125 C 43.460938 -30.570312 42.675781 -30.328125 41.53125 -30.078125 C 40.382812 -29.828125 39.460938 -29.703125 38.765625 -29.703125 L 37.84375 -29.765625 C 37.144531 -29.765625 36.8125 -29.394531 36.84375 -28.65625 C 37.3125 -28.03125 37.625 -26.691406 37.78125 -24.640625 C 39.21875 -25.304688 40.265625 -25.675781 40.921875 -25.75 Z M 40.921875 -25.75 "/></g></g></g><g fill="#000000" fill-opacity="1"><g transform="translate(175.226693, 180.125027)"><g><path d="M 41.671875 -9.234375 C 43.722656 -8.773438 45.535156 -8.535156 47.109375 -8.515625 C 48.679688 -8.492188 50.101562 -7.941406 51.375 -6.859375 C 52.65625 -5.773438 53.296875 -4.671875 53.296875 -3.546875 C 53.296875 -2.804688 53.101562 -2.109375 52.71875 -1.453125 C 52.332031 -0.796875 51.710938 -0.46875 50.859375 -0.46875 C 49.460938 -0.46875 47.601562 -2.304688 45.28125 -5.984375 C 44.113281 -7.804688 42.910156 -8.738281 41.671875 -8.78125 C 41.828125 -6.800781 41.90625 -5.132812 41.90625 -3.78125 C 41.90625 -0.988281 41.523438 1.160156 40.765625 2.671875 C 40.015625 4.179688 39.289062 4.9375 38.59375 4.9375 C 38.320312 4.9375 38.109375 4.820312 37.953125 4.59375 C 37.066406 3.3125 36.222656 2.289062 35.421875 1.53125 C 34.628906 0.78125 33.988281 0.0664062 33.5 -0.609375 C 33.019531 -1.285156 32.507812 -2.265625 31.96875 -3.546875 C 31.070312 -3.046875 30.441406 -2.597656 30.078125 -2.203125 C 29.710938 -1.816406 29.285156 -1.148438 28.796875 -0.203125 C 28.316406 0.742188 27.851562 1.21875 27.40625 1.21875 C 26.957031 1.21875 26.585938 0.742188 26.296875 -0.203125 C 26.003906 -1.148438 25.859375 -2.109375 25.859375 -3.078125 C 25.859375 -4.046875 25.992188 -4.789062 26.265625 -5.3125 C 26.535156 -5.84375 26.738281 -6.492188 26.875 -7.265625 C 27.019531 -8.035156 27.273438 -8.585938 27.640625 -8.921875 C 28.003906 -9.253906 28.347656 -9.421875 28.671875 -9.421875 C 29.003906 -9.421875 29.367188 -8.953125 29.765625 -8.015625 C 29.453125 -7.984375 29.296875 -7.789062 29.296875 -7.4375 C 29.296875 -6.46875 29.441406 -5.984375 29.734375 -5.984375 C 30.023438 -5.984375 30.363281 -6.097656 30.75 -6.328125 C 30.4375 -6.910156 30.242188 -7.457031 30.171875 -7.96875 C 30.785156 -7.269531 31.226562 -6.800781 31.5 -6.5625 C 34.375 -7.925781 36.410156 -8.703125 37.609375 -8.890625 C 37.648438 -10.441406 37.648438 -11.679688 37.609375 -12.609375 C 35.628906 -12.179688 32.972656 -11.347656 29.640625 -10.109375 C 28.710938 -9.765625 27.910156 -9.59375 27.234375 -9.59375 C 26.554688 -9.59375 25.882812 -9.765625 25.21875 -10.109375 C 24.601562 -8.753906 24.195312 -7.425781 24 -6.125 C 23.8125 -4.832031 23.367188 -3.523438 22.671875 -2.203125 C 22.203125 -1.316406 21.96875 0.0351562 21.96875 1.859375 C 21.96875 2.671875 21.738281 3.078125 21.28125 3.078125 C 20.5 3.078125 19.582031 2.164062 18.53125 0.34375 C 17.488281 -1.476562 16.96875 -3.125 16.96875 -4.59375 L 17.140625 -8.3125 C 17.179688 -9.75 17.203125 -11.640625 17.203125 -13.984375 C 17.203125 -16.328125 17.109375 -17.5 16.921875 -17.5 C 16.796875 -17.5 16.640625 -17.320312 16.453125 -16.96875 C 15.984375 -16.082031 15.117188 -15.15625 13.859375 -14.1875 C 12.597656 -13.21875 11.300781 -12.734375 9.96875 -12.734375 C 8.632812 -12.734375 7.65625 -13.289062 7.03125 -14.40625 C 6.414062 -15.53125 6.109375 -16.828125 6.109375 -18.296875 C 6.109375 -19.773438 6.765625 -21.359375 8.078125 -23.046875 C 9.398438 -24.734375 11.628906 -26.828125 14.765625 -29.328125 C 17.898438 -31.828125 19.46875 -33.503906 19.46875 -34.359375 C 19.46875 -34.546875 19.421875 -34.6875 19.328125 -34.78125 C 19.234375 -34.882812 18.738281 -35.351562 17.84375 -36.1875 C 16.945312 -37.019531 16.5 -37.492188 16.5 -37.609375 C 16.5 -37.796875 16.960938 -37.9375 17.890625 -38.03125 C 18.828125 -38.132812 19.53125 -38.1875 20 -38.1875 C 22.207031 -38.1875 23.941406 -37.566406 25.203125 -36.328125 C 26.460938 -35.085938 27.09375 -34.085938 27.09375 -33.328125 C 27.09375 -32.578125 26.847656 -31.945312 26.359375 -31.4375 C 25.878906 -30.9375 25.347656 -30.6875 24.765625 -30.6875 C 24.566406 -30.6875 24.300781 -30.734375 23.96875 -30.828125 C 23.644531 -30.929688 23.316406 -30.984375 22.984375 -30.984375 C 22.660156 -30.984375 22.242188 -30.863281 21.734375 -30.625 C 21.234375 -30.394531 20.332031 -29.875 19.03125 -29.0625 C 17.738281 -28.25 16.90625 -27.773438 16.53125 -27.640625 C 16.164062 -27.503906 15.734375 -27.4375 15.234375 -27.4375 C 13.953125 -27.4375 12.425781 -26.582031 10.65625 -24.875 C 8.894531 -23.164062 8.015625 -21.539062 8.015625 -20 C 8.015625 -19.300781 8.210938 -18.953125 8.609375 -18.953125 C 9.378906 -18.953125 10.679688 -19.550781 12.515625 -20.75 C 14.359375 -21.945312 15.628906 -23.03125 16.328125 -24 C 16.753906 -24.625 17.664062 -24.9375 19.0625 -24.9375 C 21.78125 -24.9375 23.140625 -23.71875 23.140625 -21.28125 C 23.140625 -20.769531 23.0625 -20.265625 22.90625 -19.765625 C 21.625 -15.734375 20.875 -13.019531 20.65625 -11.625 C 20.445312 -10.226562 20.34375 -8.84375 20.34375 -7.46875 C 20.34375 -6.09375 20.359375 -5.335938 20.390625 -5.203125 C 20.429688 -5.066406 20.5 -5 20.59375 -5 C 20.695312 -5 20.785156 -5.054688 20.859375 -5.171875 C 20.941406 -5.285156 21.359375 -6.085938 22.109375 -7.578125 C 22.867188 -9.078125 23.644531 -10.785156 24.4375 -12.703125 C 25.238281 -14.617188 26.160156 -16.367188 27.203125 -17.953125 C 26.816406 -16.523438 26.488281 -14.820312 26.21875 -12.84375 C 29.894531 -14.125 33.671875 -15.148438 37.546875 -15.921875 L 37.4375 -18.078125 C 35.726562 -17.847656 34.425781 -17.585938 33.53125 -17.296875 C 32.644531 -17.003906 32.085938 -16.859375 31.859375 -16.859375 C 30.804688 -16.859375 29.921875 -17.707031 29.203125 -19.40625 C 28.484375 -21.113281 28.085938 -23.207031 28.015625 -25.6875 C 27.972656 -26.925781 27.726562 -27.851562 27.28125 -28.46875 C 26.84375 -29.09375 26.625 -29.550781 26.625 -29.84375 C 26.625 -30.132812 26.707031 -30.5625 26.875 -31.125 C 27.050781 -31.6875 27.195312 -32.023438 27.3125 -32.140625 C 27.4375 -32.253906 27.671875 -32.3125 28.015625 -32.3125 C 28.367188 -32.3125 29.203125 -32.175781 30.515625 -31.90625 C 32.648438 -33.5 35.207031 -34.671875 38.1875 -35.421875 C 41.164062 -36.179688 43.203125 -36.5625 44.296875 -36.5625 C 46.078125 -36.5625 47.953125 -35.832031 49.921875 -34.375 C 51.898438 -32.925781 52.890625 -31.503906 52.890625 -30.109375 C 52.890625 -29.753906 52.820312 -29.40625 52.6875 -29.0625 C 52.550781 -28.71875 52.023438 -27.828125 51.109375 -26.390625 C 50.203125 -24.953125 49.421875 -23.921875 48.765625 -23.296875 C 48.109375 -22.679688 47.316406 -22.007812 46.390625 -21.28125 C 46.460938 -19.726562 45.316406 -18.953125 42.953125 -18.953125 C 42.210938 -18.953125 41.648438 -18.894531 41.265625 -18.78125 L 41.265625 -16.5 C 44.171875 -16.851562 46.128906 -17.03125 47.140625 -17.03125 C 48.148438 -17.03125 49.289062 -16.648438 50.5625 -15.890625 C 51.84375 -15.140625 52.484375 -14.5 52.484375 -13.96875 C 52.484375 -13.445312 52.269531 -13.007812 51.84375 -12.65625 C 51.414062 -12.3125 50.921875 -12.140625 50.359375 -12.140625 C 49.796875 -12.140625 49.242188 -12.21875 48.703125 -12.375 C 46.421875 -13.070312 44.40625 -13.421875 42.65625 -13.421875 C 42.15625 -13.421875 41.734375 -13.382812 41.390625 -13.3125 C 41.460938 -11.644531 41.554688 -10.285156 41.671875 -9.234375 Z M 41.4375 -22.609375 C 42.675781 -22.722656 43.546875 -23.140625 44.046875 -23.859375 C 44.554688 -24.578125 45.09375 -25.828125 45.65625 -27.609375 C 46.21875 -29.390625 46.5 -30.5625 46.5 -31.125 C 46.5 -31.6875 46.375 -32.296875 46.125 -32.953125 C 45.875 -33.609375 45.390625 -33.9375 44.671875 -33.9375 C 43.953125 -33.9375 42.660156 -33.335938 40.796875 -32.140625 C 41.304688 -31.398438 41.582031 -30.53125 41.625 -29.53125 C 42.664062 -29.445312 43.476562 -29.203125 44.0625 -28.796875 C 44.644531 -28.390625 44.9375 -27.984375 44.9375 -27.578125 C 44.9375 -27.171875 44.65625 -26.773438 44.09375 -26.390625 C 43.53125 -26.003906 42.707031 -25.691406 41.625 -25.453125 C 41.5 -24.484375 41.4375 -23.535156 41.4375 -22.609375 Z M 37.375 -28.359375 C 37.300781 -29.453125 36.988281 -30.269531 36.4375 -30.8125 C 34.96875 -30.34375 33.441406 -30.070312 31.859375 -30 C 32.160156 -29.144531 32.410156 -28.15625 32.609375 -27.03125 C 33.617188 -27.488281 35.207031 -27.929688 37.375 -28.359375 Z M 37.203125 -21.5625 C 37.160156 -22.257812 37.140625 -23.171875 37.140625 -24.296875 C 35.828125 -23.710938 34.21875 -23.421875 32.3125 -23.421875 C 32.3125 -22.179688 32.347656 -21.382812 32.421875 -21.03125 C 32.503906 -20.6875 32.664062 -20.554688 32.90625 -20.640625 C 34.375 -20.984375 35.804688 -21.289062 37.203125 -21.5625 Z M 33.890625 -4.765625 C 35.585938 -4.066406 36.59375 -3.71875 36.90625 -3.71875 C 37.21875 -3.71875 37.410156 -3.773438 37.484375 -3.890625 C 37.566406 -4.003906 37.617188 -4.578125 37.640625 -5.609375 C 37.660156 -6.640625 37.648438 -7.519531 37.609375 -8.25 C 35.859375 -6.894531 34.617188 -5.734375 33.890625 -4.765625 Z M 33.890625 -4.765625 "/></g></g></g><g fill="#000000" fill-opacity="1"><g transform="translate(233.35177, 180.125027)"><g><path d="M 38.53125 -26.625 C 39.425781 -27.082031 40.222656 -27.398438 40.921875 -27.578125 C 41.617188 -27.753906 42.882812 -27.890625 44.71875 -27.984375 C 46.5625 -28.078125 48.066406 -28.28125 49.234375 -28.59375 C 49.460938 -28.632812 49.691406 -28.65625 49.921875 -28.65625 C 50.816406 -28.65625 51.625 -28.316406 52.34375 -27.640625 C 53.0625 -26.960938 53.421875 -26.039062 53.421875 -24.875 C 53.421875 -23.71875 53.265625 -23.140625 52.953125 -23.140625 C 52.640625 -23.140625 52.171875 -23.253906 51.546875 -23.484375 C 50.929688 -23.710938 50.316406 -23.828125 49.703125 -23.828125 C 48.578125 -23.828125 45.765625 -23.148438 41.265625 -21.796875 C 41.265625 -21.328125 41.207031 -20.335938 41.09375 -18.828125 C 42.957031 -18.554688 44.648438 -17.867188 46.171875 -16.765625 C 47.703125 -15.660156 48.46875 -14.375 48.46875 -12.90625 C 48.46875 -12.09375 48.195312 -11.519531 47.65625 -11.1875 C 47.113281 -10.851562 46.476562 -9.703125 45.75 -7.734375 C 44.507812 -4.398438 43.128906 -1.671875 41.609375 0.453125 C 40.097656 2.585938 38.632812 4.070312 37.21875 4.90625 C 35.8125 5.738281 34.882812 6.15625 34.4375 6.15625 C 33.988281 6.15625 33.640625 5.988281 33.390625 5.65625 C 33.140625 5.332031 32.585938 4.046875 31.734375 1.796875 C 30.878906 -0.441406 30.222656 -2.628906 29.765625 -4.765625 C 27.203125 -2.054688 25.257812 -0.304688 23.9375 0.484375 C 22.625 1.285156 21.367188 1.6875 20.171875 1.6875 C 19.742188 1.6875 19.53125 1.609375 19.53125 1.453125 C 19.53125 1.296875 19.722656 1.101562 20.109375 0.875 C 21.429688 0.09375 23.234375 -1.75 25.515625 -4.65625 L 32.265625 -13.375 C 34.503906 -16.3125 35.625 -17.992188 35.625 -18.421875 C 35.625 -18.503906 35.515625 -18.570312 35.296875 -18.625 C 35.085938 -18.6875 34.984375 -18.785156 34.984375 -18.921875 C 34.984375 -19.054688 35.101562 -19.257812 35.34375 -19.53125 C 36.226562 -20.695312 36.671875 -21.453125 36.671875 -21.796875 C 36.671875 -22.140625 36.613281 -22.429688 36.5 -22.671875 C 34.875 -21.929688 33.117188 -21.304688 31.234375 -20.796875 C 29.359375 -20.296875 28.207031 -20.046875 27.78125 -20.046875 C 27.351562 -20.046875 27.140625 -20.21875 27.140625 -20.5625 C 27.140625 -20.914062 27.039062 -21.09375 26.84375 -21.09375 C 26.65625 -21.09375 26.503906 -21.054688 26.390625 -20.984375 C 25.847656 -19.316406 25.578125 -18.363281 25.578125 -18.125 C 25.578125 -17.894531 25.59375 -17.722656 25.625 -17.609375 C 25.664062 -17.492188 25.6875 -17.378906 25.6875 -17.265625 C 25.6875 -16.910156 25.28125 -16.269531 24.46875 -15.34375 C 23.65625 -14.414062 21.941406 -12.691406 19.328125 -10.171875 C 16.710938 -7.648438 14.785156 -5.875 13.546875 -4.84375 C 12.304688 -3.820312 11.203125 -3.085938 10.234375 -2.640625 C 9.265625 -2.191406 8.523438 -1.96875 8.015625 -1.96875 C 7.171875 -1.96875 6.75 -3.304688 6.75 -5.984375 C 6.75 -6.640625 6.832031 -7.113281 7 -7.40625 C 7.175781 -7.695312 7.554688 -7.941406 8.140625 -8.140625 C 9.109375 -8.523438 10.28125 -9.585938 11.65625 -11.328125 C 13.03125 -13.078125 13.640625 -14.59375 13.484375 -15.875 C 12.828125 -15.75 12.242188 -15.6875 11.734375 -15.6875 C 10.148438 -15.6875 8.523438 -16.460938 6.859375 -18.015625 C 5.191406 -19.566406 4.359375 -20.476562 4.359375 -20.75 C 4.359375 -21.019531 4.492188 -21.15625 4.765625 -21.15625 L 5.75 -21.09375 C 6.375 -21.09375 6.914062 -21.195312 7.375 -21.40625 C 7.84375 -21.625 8.734375 -22.273438 10.046875 -23.359375 C 11.367188 -24.453125 12.671875 -25.285156 13.953125 -25.859375 C 13.910156 -29.585938 13.820312 -31.941406 13.6875 -32.921875 C 13.550781 -33.910156 13.359375 -34.363281 13.109375 -34.28125 C 12.859375 -34.207031 12.65625 -34.171875 12.5 -34.171875 C 12.34375 -34.171875 12.265625 -34.285156 12.265625 -34.515625 C 12.265625 -34.753906 12.503906 -35.132812 12.984375 -35.65625 C 13.472656 -36.175781 14.359375 -36.4375 15.640625 -36.4375 C 18.234375 -36.4375 19.53125 -35.101562 19.53125 -32.4375 C 19.53125 -32.238281 19.488281 -30.707031 19.40625 -27.84375 C 20.613281 -27.613281 21.566406 -27.367188 22.265625 -27.109375 C 22.960938 -26.859375 23.445312 -26.328125 23.71875 -25.515625 C 23.988281 -24.703125 24.125 -24.023438 24.125 -23.484375 C 24.125 -22.941406 23.878906 -22.628906 23.390625 -22.546875 C 22.910156 -22.472656 22.398438 -22.257812 21.859375 -21.90625 C 21.316406 -21.5625 20.441406 -20.90625 19.234375 -19.9375 C 18.960938 -18.738281 18.675781 -16.859375 18.375 -14.296875 C 21.15625 -15.648438 23.050781 -16.835938 24.0625 -17.859375 C 25.070312 -18.890625 25.75 -20.101562 26.09375 -21.5 C 24.96875 -22.007812 24.40625 -22.414062 24.40625 -22.71875 C 24.40625 -23.03125 24.472656 -23.359375 24.609375 -23.703125 C 24.742188 -24.054688 24.9375 -24.28125 25.1875 -24.375 C 25.445312 -24.476562 25.925781 -24.53125 26.625 -24.53125 C 28.71875 -24.53125 30.65625 -25.1875 32.4375 -26.5 C 34.21875 -27.820312 35.4375 -28.835938 36.09375 -29.546875 C 36.75 -30.265625 37.078125 -30.984375 37.078125 -31.703125 C 37.078125 -32.421875 36.894531 -33.222656 36.53125 -34.109375 C 36.164062 -35.003906 35.679688 -35.597656 35.078125 -35.890625 C 34.472656 -36.179688 33.753906 -36.328125 32.921875 -36.328125 C 32.085938 -36.328125 31.34375 -36.304688 30.6875 -36.265625 C 31.65625 -37.347656 32.421875 -38.035156 32.984375 -38.328125 C 33.546875 -38.617188 34.367188 -38.765625 35.453125 -38.765625 C 37.859375 -38.765625 39.46875 -38.382812 40.28125 -37.625 C 41.09375 -36.875 41.5 -35.300781 41.5 -32.90625 C 41.5 -31.082031 41.320312 -29.878906 40.96875 -29.296875 C 40.625 -28.710938 39.640625 -28.015625 38.015625 -27.203125 C 38.054688 -26.972656 38.226562 -26.78125 38.53125 -26.625 Z M 39.8125 -23.015625 C 40.4375 -22.941406 40.894531 -22.976562 41.1875 -23.125 C 41.476562 -23.28125 41.625 -23.4375 41.625 -23.59375 C 41.625 -23.75 41.5625 -23.828125 41.4375 -23.828125 C 41.320312 -23.828125 40.78125 -23.769531 39.8125 -23.65625 C 39.738281 -23.539062 39.707031 -23.425781 39.71875 -23.3125 C 39.738281 -23.195312 39.769531 -23.097656 39.8125 -23.015625 Z M 30.34375 -5.40625 C 30.800781 -4.007812 31.804688 -2.726562 33.359375 -1.5625 C 34.910156 -0.40625 35.96875 0.171875 36.53125 0.171875 C 37.09375 0.171875 37.597656 -0.0195312 38.046875 -0.40625 C 38.492188 -0.789062 39.226562 -1.863281 40.25 -3.625 C 41.28125 -5.394531 42.148438 -7.273438 42.859375 -9.265625 C 43.578125 -11.265625 43.9375 -12.726562 43.9375 -13.65625 C 43.9375 -13.925781 43.878906 -14.085938 43.765625 -14.140625 C 43.648438 -14.203125 43.40625 -14.210938 43.03125 -14.171875 C 42.664062 -14.140625 42.289062 -14.125 41.90625 -14.125 C 40.507812 -14.125 39.132812 -14.316406 37.78125 -14.703125 Z M 30.34375 -5.40625 "/></g></g></g></g></g></g></g></g></g></mask><clipPath id="8c4a24b468"><path d="M 0.769531 1.625 L 408.019531 1.625 L 408.019531 313.625 L 0.769531 313.625 Z M 0.769531 1.625 " clip-rule="nonzero"/></clipPath><clipPath id="1285a9faab"><rect x="0" width="409" y="0" height="315"/></clipPath><clipPath id="3cb7fdbec3"><rect x="0" width="409" y="0" height="315"/></clipPath></defs><g clip-path="url(#77dd6c5ad2)"><g transform="matrix(1, 0, 0, 1, 515, 247)"><g clip-path="url(#3cb7fdbec3)"><g clip-path="url(#436ef3499e)"><g mask="url(#75cdf948b6)"><g transform="matrix(1, 0, 0, 1, 0, 0.000000000000028422)"><g clip-path="url(#1285a9faab)"><g clip-path="url(#8c4a24b468)"><path fill="url(#e9ec1c09b2)" d="M 0.769531 1.625 L 0.769531 313.625 L 408.019531 313.625 L 408.019531 1.625 Z M 0.769531 1.625 " fill-rule="nonzero"/></g></g></g></g></g></g></g></g></svg>